<?xml version="1.0" encoding="UTF-8"?>
<svg version="1.1" xmlns="http://www.w3.org/2000/svg" width="619" height="201">
<path d="M0 0 C204.27 0 408.54 0 619 0 C619 66.33 619 132.66 619 201 C414.73 201 210.46 201 0 201 C0 134.67 0 68.34 0 0 Z " fill="#FDFDFD" transform="translate(0,0)"/>
<path d="M0 0 C3.92305381 1.61592454 6.71513166 4.31215679 9.75 7.1875 C10.74381594 8.11953109 11.73862703 9.05050206 12.734375 9.98046875 C13.25821777 10.4703125 13.78206055 10.96015625 14.32177734 11.46484375 C16.08801103 13.0805082 17.89501872 14.63968128 19.7109375 16.19921875 C43.67330083 37.08062521 70.37927592 65.29760534 76 98 C76.1875 101.6875 76.1875 101.6875 76 104 C73.53739091 105.61016748 72.1806025 106.0083355 69.20703125 105.87109375 C65.27323325 104.80259563 63.11024956 102.80902701 60.3125 100 C59.25628609 98.9844981 58.19764637 97.97151383 57.13671875 96.9609375 C56.60997559 96.4565918 56.08323242 95.95224609 55.54052734 95.43261719 C53.32911483 93.37610869 50.98850197 91.50323347 48.625 89.625 C44.28544027 86.13840969 40.22574988 82.44859764 36.1875 78.625 C29.97325282 72.75973361 23.43222088 67.48768745 16.65625 62.29199219 C13.09679529 59.51536566 9.65890487 56.58816273 6.20703125 53.6796875 C4.01913018 51.82698749 4.01913018 51.82698749 1 51 C8.56243026 67.06859382 8.56243026 67.06859382 18.9375 81.375 C21 84 21 84 21.4375 86.75 C21 89 21 89 19 91 C15.89611626 91.45297142 14.48614782 91.33787723 11.88671875 89.53125 C11.16097656 88.8609375 10.43523437 88.190625 9.6875 87.5 C-1.69553508 77.96649795 -16.2404825 73.09611759 -30 68 C-29.52055775 72.21807174 -28.99310549 75.61692434 -26.875 79.3125 C-25.7421875 81.30078125 -25.7421875 81.30078125 -25 83 C-25.495 83.99 -25.495 83.99 -26 85 C-27.1470194 83.20909242 -28.29257935 81.41725003 -29.4375 79.625 C-30.07558594 78.62726563 -30.71367187 77.62953125 -31.37109375 76.6015625 C-33.98461854 72.42744378 -34.26670744 69.97853881 -34 65 C-33.34 64.34 -32.68 63.68 -32 63 C-21.97026861 63.16209667 -11.43479192 67.89091831 -2 71 C-2.58285767 69.82812134 -2.58285767 69.82812134 -3.17749023 68.63256836 C-4.62599954 65.70844846 -6.06549668 62.78023421 -7.49926758 59.84887695 C-8.11945329 58.58542811 -8.74309561 57.32366952 -9.37036133 56.0637207 C-10.2757769 54.24352567 -11.16823815 52.41744371 -12.05859375 50.58984375 C-12.59798584 49.49534912 -13.13737793 48.40085449 -13.69311523 47.27319336 C-15.0881759 43.77915668 -15.72954553 40.74772621 -16 37 C-14.6875 34.5 -14.6875 34.5 -12 33 C0.69964717 31.63596382 11.1993286 41.30377969 20.44189453 48.74169922 C21.21315674 49.36455811 21.21315674 49.36455811 22 50 C22.91652344 50.73347656 23.83304688 51.46695313 24.77734375 52.22265625 C44.47563551 68.16062799 44.47563551 68.16062799 52.66796875 76.6640625 C54.30990308 78.31081189 56.07843232 79.69333398 58 81 C50.97669631 58.0082894 33.06246888 37.74182388 17.12109375 20.3671875 C13.98440033 16.86656833 11.04312047 13.21488037 8.0859375 9.5625 C5.44858732 6.32260914 2.73591241 3.15682201 0 0 Z " fill="#80D5D6" transform="translate(60,37)"/>
<path d="M0 0 C0.66 0 1.32 0 2 0 C2.36125977 1.05872314 2.72251953 2.11744629 3.09472656 3.20825195 C4.18643901 6.40755512 5.27847119 9.60674901 6.37060547 12.8059082 C7.63100027 16.49812892 8.89029731 20.19072174 10.14892578 23.88354492 C13.27660879 33.05553699 16.4178907 42.2222786 19.6015625 51.375 C20.42884378 53.76049352 21.25568891 56.14613777 22.08239746 58.53182983 C22.60922964 60.04776043 23.13827026 61.5629254 23.66955566 63.07730103 C24.40754363 65.18119619 25.13810287 67.28753738 25.8671875 69.39453125 C26.28081543 70.57893799 26.69444336 71.76334473 27.12060547 72.98364258 C28 76 28 76 28 80 C26.68 80 25.36 80 24 80 C12.79165046 48.96895932 12.79165046 48.96895932 9.12109375 35.88671875 C7.80164711 31.21311915 6.28138571 26.60774528 4.75 22 C4.49114014 21.21455811 4.23228027 20.42911621 3.96557617 19.61987305 C2.98290391 16.03075926 2.98290391 16.03075926 1 13 C-1.19004514 19.39954685 -3.37674052 25.8002316 -5.5612793 32.20166016 C-6.30239859 34.37216128 -7.04424098 36.54241567 -7.78686523 38.71240234 C-11.66888014 50.05741421 -15.52180125 61.39778047 -19.00317383 72.87304688 C-19.8869467 75.64536208 -20.87771436 78.31686336 -22 81 C-23.32 81 -24.64 81 -26 81 C-24.32290208 72.20175315 -21.40676867 63.83979823 -18.5546875 55.37109375 C-18.01906522 53.76983111 -17.48384418 52.1684342 -16.94900513 50.56690979 C-15.54905596 46.37844593 -14.14370811 42.19181348 -12.73718262 38.0055542 C-11.29935288 33.72290617 -9.8666993 29.43852756 -8.43359375 25.15429688 C-5.6274252 16.7678409 -2.81554342 8.38331284 0 0 Z " fill="#252525" transform="translate(267,49)"/>
<path d="M0 0 C1.32 0 2.64 0 4 0 C4 26.73 4 53.46 4 81 C2.68 81 1.36 81 0 81 C-0.33 57.57 -0.66 34.14 -1 10 C-6.61 20.56 -12.22 31.12 -18 42 C-18.99 42 -19.98 42 -21 42 C-22.93925795 38.45929322 -24.87609121 34.91726567 -26.8125 31.375 C-27.35970703 30.37597656 -27.90691406 29.37695312 -28.47070312 28.34765625 C-31.06313715 23.6027164 -33.63499131 18.86278981 -36 14 C-34.68 13.67 -33.36 13.34 -32 13 C-28.04 20.26 -24.08 27.52 -20 35 C-17.35343269 31.47124358 -15.27591946 27.96360182 -13.2421875 24.08203125 C-12.8936673 23.42418137 -12.54514709 22.76633148 -12.18606567 22.08854675 C-11.07913434 19.99822649 -9.97675783 17.90555107 -8.875 15.8125 C-7.76554199 13.7090425 -6.65509911 11.60612188 -5.54251099 9.50431824 C-4.85164944 8.1988033 -4.16269028 6.89227955 -3.47579956 5.58467102 C-1.11186132 1.11186132 -1.11186132 1.11186132 0 0 Z " fill="#303030" transform="translate(224,49)"/>
<path d="M0 0 C9.9 0 19.8 0 30 0 C30 0.99 30 1.98 30 3 C27.03 3 24.06 3 21 3 C21 28.74 21 54.48 21 81 C19.68 81 18.36 81 17 81 C17 55.26 17 29.52 17 3 C11.39 3 5.78 3 0 3 C0 2.01 0 1.02 0 0 Z " fill="#252525" transform="translate(524,49)"/>
<path d="M0 0 C1.88323108 0.94496648 3.7040701 2.01251048 5.5078125 3.1015625 C5.5078125 4.0915625 5.5078125 5.0815625 5.5078125 6.1015625 C3.12217173 5.52571818 0.84098466 4.87928655 -1.4921875 4.1015625 C-8.33287948 3.44650308 -15.02395193 2.98845973 -20.7734375 7.203125 C-28.97689294 16.26421442 -29.69683039 26.61500912 -29.7421875 38.1640625 C-29.7628125 39.44990234 -29.7834375 40.73574219 -29.8046875 42.06054688 C-29.84564619 52.09030592 -29.02162977 61.07967628 -22.4921875 69.1015625 C-18.70131509 72.72761437 -15.57461541 74.77045043 -10.4921875 76.1015625 C-10.4921875 77.0915625 -10.4921875 78.0815625 -10.4921875 79.1015625 C-17.40544554 78.54850186 -21.13744725 76.39887006 -26.0546875 71.6015625 C-35.79767343 59.17846717 -35.56153914 42.09579562 -34.4921875 27.1015625 C-33.1041573 17.36503843 -28.71125219 9.70322415 -21.4296875 3.2265625 C-15.05882706 -1.38214506 -7.52351759 -2.71223988 0 0 Z " fill="#272727" transform="translate(343.4921875,49.8984375)"/>
<path d="M0 0 C1.32 0 2.64 0 4 0 C4 25.74 4 51.48 4 78 C3.34 78 2.68 78 2 78 C0.32666842 74.87852455 -1.33751716 71.75226502 -3 68.625 C-3.71542969 67.29082031 -3.71542969 67.29082031 -4.4453125 65.9296875 C-4.89648438 65.07890625 -5.34765625 64.228125 -5.8125 63.3515625 C-6.23144531 62.56604004 -6.65039062 61.78051758 -7.08203125 60.97119141 C-8 59 -8 59 -8 57 C-6.1875 57.125 -6.1875 57.125 -4 58 C-3.01 59.98 -2.02 61.96 -1 64 C-0.67 42.88 -0.34 21.76 0 0 Z " fill="#373737" transform="translate(419,51)"/>
<path d="M0 0 C2.64772306 1.09106883 4.62886788 2.35051679 7 4 C7 5.32 7 6.64 7 8 C6.401875 7.690625 5.80375 7.38125 5.1875 7.0625 C-0.08159395 4.5032258 -5.23844031 4.36078648 -11 5 C-14.16620095 7.18618637 -14.7896387 8.36891611 -16 12 C-16.59378897 18.05664748 -15.40113474 22.08522353 -12 27 C-7.9920013 31.55919695 -3.57262163 35.54561583 1.125 39.375 C6.89069285 44.43445336 11.54749479 50.01306221 12.43359375 57.8203125 C12.43705173 61.24371687 12.31342907 64.59208074 12 68 C10.68 68 9.36 68 8 68 C8.05800781 67.32195312 8.11601562 66.64390625 8.17578125 65.9453125 C8.58918624 57.41735821 6.73129592 51.39163188 1.16796875 44.84375 C-2.08299703 41.50942612 -5.57445582 38.50743991 -9.125 35.5 C-13.84123037 31.45353015 -19.64805241 25.85411462 -20.23828125 19.390625 C-20.49029126 8.72662238 -20.49029126 8.72662238 -16 4 C-11.0731768 -0.45760194 -6.38183491 -1.04521391 0 0 Z " fill="#212121" transform="translate(498,49)"/>
<path d="M0 0 C3.2907154 3.2907154 5.04510684 6.43216489 7.1875 10.5 C7.73954102 11.51513672 7.73954102 11.51513672 8.30273438 12.55078125 C11 17.62504348 11 17.62504348 11 21 C9.1875 20.9375 9.1875 20.9375 7 20 C6.01 17.69 5.02 15.38 4 13 C3.67 34.45 3.34 55.9 3 78 C2.01 78 1.02 78 0 78 C0 52.26 0 26.52 0 0 Z " fill="#222222" transform="translate(384,50)"/>
<path d="M0 0 C1.32 0 2.64 0 4 0 C4.99 2.31 5.98 4.62 7 7 C5.68 7.33 4.36 7.66 3 8 C3 32.09 3 56.18 3 81 C2.01 81 1.02 81 0 81 C0 54.27 0 27.54 0 0 Z " fill="#191919" transform="translate(181,49)"/>
<path d="M0 0 C0.99 0 1.98 0 3 0 C3 26.73 3 53.46 3 81 C2.01 81 1.02 81 0 81 C0 54.27 0 27.54 0 0 Z " fill="#2C2C2C" transform="translate(165,49)"/>
<path d="M0 0 C8.91 0 17.82 0 27 0 C27 0.99 27 1.98 27 3 C19.08 3 11.16 3 3 3 C3 18.84 3 34.68 3 51 C2.01 51 1.02 51 0 51 C0 34.17 0 17.34 0 0 Z " fill="#212121" transform="translate(436,49)"/>
<path d="M0 0 C6.6 0 13.2 0 20 0 C20 9.24 20 18.48 20 28 C10 33 10 33 5 33 C5 32.01 5 31.02 5 30 C9 28.66666667 13 27.33333333 17 26 C17 18.41 17 10.82 17 3 C11.39 3 5.78 3 0 3 C0 2.01 0 1.02 0 0 Z " fill="#171717" transform="translate(334,96)"/>
<path d="M0 0 C2.31 0 4.62 0 7 0 C7 0.66 7 1.32 7 2 C5.68 2 4.36 2 3 2 C3 9.26 3 16.52 3 24 C11.25 24 19.5 24 28 24 C28 24.66 28 25.32 28 26 C18.76 26 9.52 26 0 26 C0 17.42 0 8.84 0 0 Z " fill="#181818" transform="translate(436,103)"/>
<path d="M0 0 C1.32 0.33 2.64 0.66 4 1 C4.84137043 3.8937133 5.6733036 6.78959397 6.5 9.6875 C6.73847656 10.50412109 6.97695313 11.32074219 7.22265625 12.16210938 C8.36464868 16.19171125 9.34500623 19.76504847 9 24 C7.68 23.67 6.36 23.34 5 23 C4.16089611 19.73061914 3.32971667 16.45927466 2.5 13.1875 C2.26152344 12.25873047 2.02304687 11.32996094 1.77734375 10.37304688 C1.55175781 9.48037109 1.32617188 8.58769531 1.09375 7.66796875 C0.88427734 6.84578857 0.67480469 6.0236084 0.45898438 5.17651367 C0 3 0 3 0 0 Z " fill="#2D2D2D" transform="translate(263,106)"/>
<path d="M0 0 C0.763125 0.061875 1.52625 0.12375 2.3125 0.1875 C0.83549557 3.22356467 -0.43684221 5.0057731 -3.1875 7 C-8.05429233 8.65123311 -12.59679578 8.4320712 -17.6875 8.1875 C-17.6875 7.1975 -17.6875 6.2075 -17.6875 5.1875 C-16.85605469 5.07792969 -16.02460938 4.96835938 -15.16796875 4.85546875 C-14.08128906 4.69691406 -12.99460937 4.53835937 -11.875 4.375 C-10.25658203 4.14876953 -10.25658203 4.14876953 -8.60546875 3.91796875 C-4.8250052 2.97158765 -3.76853962 0.26292137 0 0 Z " fill="#1D1D1D" transform="translate(505.6875,120.8125)"/>
<path d="M0 0 C1.98 0 3.96 0 6 0 C6 0.99 6 1.98 6 3 C4.02 3 2.04 3 0 3 C0 2.01 0 1.02 0 0 Z " fill="#1F1F1F" transform="translate(556,49)"/>
</svg>
